<mxfile host="app.diagrams.net" modified="2021-07-21T08:54:36.104Z" agent="5.0 (X11; Linux x86_64) AppleWebKit/537.36 (KHTML, like Gecko) Chrome/78.0.3904.108 Safari/537.36" etag="dw6NeJukvcM2V-a_7x0J" version="14.9.0" type="github" pages="3">
  <diagram id="C5RBs43oDa-KdzZeNtuy" name="Page-1">
    <mxGraphModel dx="1422" dy="769" grid="1" gridSize="10" guides="1" tooltips="1" connect="1" arrows="1" fold="1" page="1" pageScale="1" pageWidth="827" pageHeight="1169" math="0" shadow="0">
      <root>
        <mxCell id="WIyWlLk6GJQsqaUBKTNV-0" />
        <mxCell id="WIyWlLk6GJQsqaUBKTNV-1" parent="WIyWlLk6GJQsqaUBKTNV-0" />
        <mxCell id="WIyWlLk6GJQsqaUBKTNV-2" value="" style="rounded=0;html=1;jettySize=auto;orthogonalLoop=1;fontSize=11;endArrow=block;endFill=0;endSize=8;strokeWidth=1;shadow=0;labelBackgroundColor=none;edgeStyle=orthogonalEdgeStyle;" parent="WIyWlLk6GJQsqaUBKTNV-1" source="WIyWlLk6GJQsqaUBKTNV-3" target="WIyWlLk6GJQsqaUBKTNV-6" edge="1">
          <mxGeometry relative="1" as="geometry" />
        </mxCell>
        <mxCell id="WIyWlLk6GJQsqaUBKTNV-3" value="Lamp doesn&#39;t work" style="rounded=1;whiteSpace=wrap;html=1;fontSize=12;glass=0;strokeWidth=1;shadow=0;" parent="WIyWlLk6GJQsqaUBKTNV-1" vertex="1">
          <mxGeometry x="160" y="80" width="120" height="40" as="geometry" />
        </mxCell>
        <mxCell id="WIyWlLk6GJQsqaUBKTNV-4" value="Yes" style="rounded=0;html=1;jettySize=auto;orthogonalLoop=1;fontSize=11;endArrow=block;endFill=0;endSize=8;strokeWidth=1;shadow=0;labelBackgroundColor=none;edgeStyle=orthogonalEdgeStyle;" parent="WIyWlLk6GJQsqaUBKTNV-1" source="WIyWlLk6GJQsqaUBKTNV-6" target="WIyWlLk6GJQsqaUBKTNV-10" edge="1">
          <mxGeometry y="20" relative="1" as="geometry">
            <mxPoint as="offset" />
          </mxGeometry>
        </mxCell>
        <mxCell id="WIyWlLk6GJQsqaUBKTNV-5" value="No" style="edgeStyle=orthogonalEdgeStyle;rounded=0;html=1;jettySize=auto;orthogonalLoop=1;fontSize=11;endArrow=block;endFill=0;endSize=8;strokeWidth=1;shadow=0;labelBackgroundColor=none;" parent="WIyWlLk6GJQsqaUBKTNV-1" source="WIyWlLk6GJQsqaUBKTNV-6" target="WIyWlLk6GJQsqaUBKTNV-7" edge="1">
          <mxGeometry y="10" relative="1" as="geometry">
            <mxPoint as="offset" />
          </mxGeometry>
        </mxCell>
        <mxCell id="WIyWlLk6GJQsqaUBKTNV-6" value="Lamp&lt;br&gt;plugged in?" style="rhombus;whiteSpace=wrap;html=1;shadow=0;fontFamily=Helvetica;fontSize=12;align=center;strokeWidth=1;spacing=6;spacingTop=-4;" parent="WIyWlLk6GJQsqaUBKTNV-1" vertex="1">
          <mxGeometry x="170" y="170" width="100" height="80" as="geometry" />
        </mxCell>
        <mxCell id="WIyWlLk6GJQsqaUBKTNV-7" value="Plug in lamp" style="rounded=1;whiteSpace=wrap;html=1;fontSize=12;glass=0;strokeWidth=1;shadow=0;" parent="WIyWlLk6GJQsqaUBKTNV-1" vertex="1">
          <mxGeometry x="320" y="190" width="120" height="40" as="geometry" />
        </mxCell>
        <mxCell id="WIyWlLk6GJQsqaUBKTNV-8" value="No" style="rounded=0;html=1;jettySize=auto;orthogonalLoop=1;fontSize=11;endArrow=block;endFill=0;endSize=8;strokeWidth=1;shadow=0;labelBackgroundColor=none;edgeStyle=orthogonalEdgeStyle;" parent="WIyWlLk6GJQsqaUBKTNV-1" source="WIyWlLk6GJQsqaUBKTNV-10" target="WIyWlLk6GJQsqaUBKTNV-11" edge="1">
          <mxGeometry x="0.3333" y="20" relative="1" as="geometry">
            <mxPoint as="offset" />
          </mxGeometry>
        </mxCell>
        <mxCell id="WIyWlLk6GJQsqaUBKTNV-9" value="Yes" style="edgeStyle=orthogonalEdgeStyle;rounded=0;html=1;jettySize=auto;orthogonalLoop=1;fontSize=11;endArrow=block;endFill=0;endSize=8;strokeWidth=1;shadow=0;labelBackgroundColor=none;" parent="WIyWlLk6GJQsqaUBKTNV-1" source="WIyWlLk6GJQsqaUBKTNV-10" target="WIyWlLk6GJQsqaUBKTNV-12" edge="1">
          <mxGeometry y="10" relative="1" as="geometry">
            <mxPoint as="offset" />
          </mxGeometry>
        </mxCell>
        <mxCell id="WIyWlLk6GJQsqaUBKTNV-10" value="Bulb&lt;br&gt;burned out?" style="rhombus;whiteSpace=wrap;html=1;shadow=0;fontFamily=Helvetica;fontSize=12;align=center;strokeWidth=1;spacing=6;spacingTop=-4;" parent="WIyWlLk6GJQsqaUBKTNV-1" vertex="1">
          <mxGeometry x="170" y="290" width="100" height="80" as="geometry" />
        </mxCell>
        <mxCell id="WIyWlLk6GJQsqaUBKTNV-11" value="Repair Lamp" style="rounded=1;whiteSpace=wrap;html=1;fontSize=12;glass=0;strokeWidth=1;shadow=0;" parent="WIyWlLk6GJQsqaUBKTNV-1" vertex="1">
          <mxGeometry x="160" y="430" width="120" height="40" as="geometry" />
        </mxCell>
        <mxCell id="WIyWlLk6GJQsqaUBKTNV-12" value="Replace Bulb" style="rounded=1;whiteSpace=wrap;html=1;fontSize=12;glass=0;strokeWidth=1;shadow=0;" parent="WIyWlLk6GJQsqaUBKTNV-1" vertex="1">
          <mxGeometry x="320" y="310" width="120" height="40" as="geometry" />
        </mxCell>
      </root>
    </mxGraphModel>
  </diagram>
  <diagram id="J6X2gmCy10jF-p2Zyp9w" name="第 2 页">
    <mxGraphModel dx="1422" dy="740" grid="1" gridSize="10" guides="1" tooltips="1" connect="1" arrows="1" fold="1" page="1" pageScale="1" pageWidth="1169" pageHeight="827" math="0" shadow="0">
      <root>
        <mxCell id="KjCubYsRehrnlHbMlbsu-0" />
        <mxCell id="KjCubYsRehrnlHbMlbsu-1" parent="KjCubYsRehrnlHbMlbsu-0" />
        <mxCell id="cyubZ04Br_NVr4NVPkJg-21" style="edgeStyle=orthogonalEdgeStyle;rounded=0;orthogonalLoop=1;jettySize=auto;html=1;exitX=0.5;exitY=1;exitDx=0;exitDy=0;" edge="1" parent="KjCubYsRehrnlHbMlbsu-1" source="cyubZ04Br_NVr4NVPkJg-1" target="cyubZ04Br_NVr4NVPkJg-4">
          <mxGeometry relative="1" as="geometry" />
        </mxCell>
        <mxCell id="cyubZ04Br_NVr4NVPkJg-1" value="" style="ellipse;html=1;shape=endState;fillColor=#000000;strokeColor=none;" vertex="1" parent="KjCubYsRehrnlHbMlbsu-1">
          <mxGeometry x="530" y="90" width="30" height="30" as="geometry" />
        </mxCell>
        <mxCell id="cyubZ04Br_NVr4NVPkJg-2" value="" style="ellipse;html=1;shape=endState;fillColor=#000000;" vertex="1" parent="KjCubYsRehrnlHbMlbsu-1">
          <mxGeometry x="530" y="570" width="30" height="30" as="geometry" />
        </mxCell>
        <mxCell id="cyubZ04Br_NVr4NVPkJg-5" style="edgeStyle=orthogonalEdgeStyle;rounded=0;orthogonalLoop=1;jettySize=auto;html=1;exitX=0.5;exitY=1;exitDx=0;exitDy=0;" edge="1" parent="KjCubYsRehrnlHbMlbsu-1" source="cyubZ04Br_NVr4NVPkJg-4">
          <mxGeometry relative="1" as="geometry">
            <mxPoint x="545" y="220" as="targetPoint" />
          </mxGeometry>
        </mxCell>
        <mxCell id="cyubZ04Br_NVr4NVPkJg-4" value="开始拍照/录像" style="rounded=0;whiteSpace=wrap;html=1;strokeColor=#000000;" vertex="1" parent="KjCubYsRehrnlHbMlbsu-1">
          <mxGeometry x="500" y="140" width="90" height="40" as="geometry" />
        </mxCell>
        <mxCell id="cyubZ04Br_NVr4NVPkJg-8" style="edgeStyle=orthogonalEdgeStyle;rounded=0;orthogonalLoop=1;jettySize=auto;html=1;exitX=0.5;exitY=1;exitDx=0;exitDy=0;entryX=0.5;entryY=0;entryDx=0;entryDy=0;" edge="1" parent="KjCubYsRehrnlHbMlbsu-1" source="cyubZ04Br_NVr4NVPkJg-6" target="cyubZ04Br_NVr4NVPkJg-7">
          <mxGeometry relative="1" as="geometry" />
        </mxCell>
        <mxCell id="cyubZ04Br_NVr4NVPkJg-6" value="拍照/录像完成" style="rounded=0;whiteSpace=wrap;html=1;strokeColor=#000000;" vertex="1" parent="KjCubYsRehrnlHbMlbsu-1">
          <mxGeometry x="500" y="220" width="90" height="40" as="geometry" />
        </mxCell>
        <mxCell id="cyubZ04Br_NVr4NVPkJg-9" style="edgeStyle=orthogonalEdgeStyle;rounded=0;orthogonalLoop=1;jettySize=auto;html=1;exitX=0.5;exitY=1;exitDx=0;exitDy=0;" edge="1" parent="KjCubYsRehrnlHbMlbsu-1" source="cyubZ04Br_NVr4NVPkJg-7">
          <mxGeometry relative="1" as="geometry">
            <mxPoint x="545" y="370" as="targetPoint" />
          </mxGeometry>
        </mxCell>
        <mxCell id="cyubZ04Br_NVr4NVPkJg-10" style="edgeStyle=orthogonalEdgeStyle;rounded=0;orthogonalLoop=1;jettySize=auto;html=1;exitX=1;exitY=0.5;exitDx=0;exitDy=0;entryX=1;entryY=0.5;entryDx=0;entryDy=0;" edge="1" parent="KjCubYsRehrnlHbMlbsu-1" source="cyubZ04Br_NVr4NVPkJg-7" target="cyubZ04Br_NVr4NVPkJg-20">
          <mxGeometry relative="1" as="geometry">
            <mxPoint x="670" y="310" as="targetPoint" />
            <Array as="points">
              <mxPoint x="650" y="310" />
              <mxPoint x="650" y="455" />
            </Array>
          </mxGeometry>
        </mxCell>
        <mxCell id="cyubZ04Br_NVr4NVPkJg-7" value="是否添加标记" style="rhombus;whiteSpace=wrap;html=1;strokeColor=#000000;" vertex="1" parent="KjCubYsRehrnlHbMlbsu-1">
          <mxGeometry x="480" y="290" width="130" height="40" as="geometry" />
        </mxCell>
        <mxCell id="cyubZ04Br_NVr4NVPkJg-11" value="否" style="text;html=1;align=center;verticalAlign=middle;resizable=0;points=[];autosize=1;strokeColor=none;" vertex="1" parent="KjCubYsRehrnlHbMlbsu-1">
          <mxGeometry x="610" y="290" width="30" height="20" as="geometry" />
        </mxCell>
        <mxCell id="cyubZ04Br_NVr4NVPkJg-12" value="是" style="text;html=1;align=center;verticalAlign=middle;resizable=0;points=[];autosize=1;strokeColor=none;" vertex="1" parent="KjCubYsRehrnlHbMlbsu-1">
          <mxGeometry x="540" y="336" width="30" height="20" as="geometry" />
        </mxCell>
        <mxCell id="cyubZ04Br_NVr4NVPkJg-19" style="edgeStyle=orthogonalEdgeStyle;rounded=0;orthogonalLoop=1;jettySize=auto;html=1;exitX=0.5;exitY=1;exitDx=0;exitDy=0;" edge="1" parent="KjCubYsRehrnlHbMlbsu-1" source="cyubZ04Br_NVr4NVPkJg-16">
          <mxGeometry relative="1" as="geometry">
            <mxPoint x="545" y="440" as="targetPoint" />
          </mxGeometry>
        </mxCell>
        <mxCell id="cyubZ04Br_NVr4NVPkJg-16" value="添加文字/语音标记" style="rounded=0;whiteSpace=wrap;html=1;strokeColor=#000000;" vertex="1" parent="KjCubYsRehrnlHbMlbsu-1">
          <mxGeometry x="490" y="370" width="110" height="40" as="geometry" />
        </mxCell>
        <mxCell id="cyubZ04Br_NVr4NVPkJg-23" style="edgeStyle=orthogonalEdgeStyle;rounded=0;orthogonalLoop=1;jettySize=auto;html=1;exitX=0.5;exitY=1;exitDx=0;exitDy=0;entryX=0.5;entryY=0;entryDx=0;entryDy=0;" edge="1" parent="KjCubYsRehrnlHbMlbsu-1" source="cyubZ04Br_NVr4NVPkJg-20" target="cyubZ04Br_NVr4NVPkJg-22">
          <mxGeometry relative="1" as="geometry" />
        </mxCell>
        <mxCell id="cyubZ04Br_NVr4NVPkJg-20" value="保存" style="rounded=0;whiteSpace=wrap;html=1;strokeColor=#000000;" vertex="1" parent="KjCubYsRehrnlHbMlbsu-1">
          <mxGeometry x="520" y="440" width="50" height="30" as="geometry" />
        </mxCell>
        <mxCell id="cyubZ04Br_NVr4NVPkJg-24" style="edgeStyle=orthogonalEdgeStyle;rounded=0;orthogonalLoop=1;jettySize=auto;html=1;exitX=0.5;exitY=1;exitDx=0;exitDy=0;entryX=0.5;entryY=0;entryDx=0;entryDy=0;" edge="1" parent="KjCubYsRehrnlHbMlbsu-1" source="cyubZ04Br_NVr4NVPkJg-22" target="cyubZ04Br_NVr4NVPkJg-2">
          <mxGeometry relative="1" as="geometry" />
        </mxCell>
        <mxCell id="cyubZ04Br_NVr4NVPkJg-25" style="edgeStyle=orthogonalEdgeStyle;rounded=0;orthogonalLoop=1;jettySize=auto;html=1;exitX=0;exitY=0.5;exitDx=0;exitDy=0;entryX=0;entryY=0.5;entryDx=0;entryDy=0;" edge="1" parent="KjCubYsRehrnlHbMlbsu-1" source="cyubZ04Br_NVr4NVPkJg-22" target="cyubZ04Br_NVr4NVPkJg-4">
          <mxGeometry relative="1" as="geometry">
            <Array as="points">
              <mxPoint x="440" y="514" />
              <mxPoint x="440" y="160" />
            </Array>
          </mxGeometry>
        </mxCell>
        <mxCell id="cyubZ04Br_NVr4NVPkJg-22" value="是否退出相机" style="rhombus;whiteSpace=wrap;html=1;strokeColor=#000000;" vertex="1" parent="KjCubYsRehrnlHbMlbsu-1">
          <mxGeometry x="480" y="494" width="130" height="40" as="geometry" />
        </mxCell>
        <mxCell id="cyubZ04Br_NVr4NVPkJg-26" value="是" style="text;html=1;align=center;verticalAlign=middle;resizable=0;points=[];autosize=1;strokeColor=none;" vertex="1" parent="KjCubYsRehrnlHbMlbsu-1">
          <mxGeometry x="543" y="540" width="30" height="20" as="geometry" />
        </mxCell>
        <mxCell id="cyubZ04Br_NVr4NVPkJg-27" value="否" style="text;html=1;align=center;verticalAlign=middle;resizable=0;points=[];autosize=1;strokeColor=none;" vertex="1" parent="KjCubYsRehrnlHbMlbsu-1">
          <mxGeometry x="445" y="494" width="30" height="20" as="geometry" />
        </mxCell>
      </root>
    </mxGraphModel>
  </diagram>
  <diagram id="Yy6he1d7XQPKUB-_z99m" name="第 3 页">
    <mxGraphModel dx="1422" dy="740" grid="1" gridSize="10" guides="1" tooltips="1" connect="1" arrows="1" fold="1" page="1" pageScale="1" pageWidth="1169" pageHeight="827" math="0" shadow="0">
      <root>
        <mxCell id="gJzVYViDV8Rfju5Lc7G6-0" />
        <mxCell id="gJzVYViDV8Rfju5Lc7G6-1" parent="gJzVYViDV8Rfju5Lc7G6-0" />
      </root>
    </mxGraphModel>
  </diagram>
</mxfile>
